<mxfile host="app.diagrams.net" agent="Mozilla/5.0 (Windows NT 10.0; Win64; x64) AppleWebKit/537.36 (KHTML, like Gecko) Chrome/128.0.0.0 Safari/537.36 Edg/128.0.0.0" version="24.7.13">
  <diagram name="Page-1" id="Y7fAH1upjy2SlhPE1cSn">
    <mxGraphModel dx="2811" dy="1109" grid="1" gridSize="10" guides="1" tooltips="1" connect="1" arrows="1" fold="1" page="1" pageScale="1" pageWidth="850" pageHeight="1100" math="0" shadow="0">
      <root>
        <mxCell id="0" />
        <mxCell id="1" parent="0" />
        <mxCell id="0jMs3j5oSHPksT2f17hk-1" value="" style="shape=mxgraph.cisco.computers_and_peripherals.printer;sketch=0;html=1;pointerEvents=1;dashed=0;fillColor=#036897;strokeColor=#ffffff;strokeWidth=2;verticalLabelPosition=bottom;verticalAlign=top;align=center;outlineConnect=0;" vertex="1" parent="1">
          <mxGeometry x="30" y="182" width="91" height="34" as="geometry" />
        </mxCell>
        <mxCell id="0jMs3j5oSHPksT2f17hk-3" value="" style="shape=mxgraph.cisco.switches.workgroup_switch;sketch=0;html=1;pointerEvents=1;dashed=0;fillColor=#036897;strokeColor=#ffffff;strokeWidth=2;verticalLabelPosition=bottom;verticalAlign=top;align=center;outlineConnect=0;" vertex="1" parent="1">
          <mxGeometry x="425" y="174" width="101" height="50" as="geometry" />
        </mxCell>
        <mxCell id="0jMs3j5oSHPksT2f17hk-4" value="" style="sketch=0;points=[[0.015,0.015,0],[0.985,0.015,0],[0.985,0.985,0],[0.015,0.985,0],[0.25,0,0],[0.5,0,0],[0.75,0,0],[1,0.25,0],[1,0.5,0],[1,0.75,0],[0.75,1,0],[0.5,1,0],[0.25,1,0],[0,0.75,0],[0,0.5,0],[0,0.25,0]];verticalLabelPosition=bottom;html=1;verticalAlign=top;aspect=fixed;align=center;pointerEvents=1;shape=mxgraph.cisco19.rect;prIcon=ise;fillColor=#FAFAFA;strokeColor=#005073;" vertex="1" parent="1">
          <mxGeometry x="720" y="167" width="80" height="80" as="geometry" />
        </mxCell>
        <mxCell id="0jMs3j5oSHPksT2f17hk-5" value="" style="endArrow=none;html=1;rounded=0;shadow=1;" edge="1" parent="1">
          <mxGeometry width="50" height="50" relative="1" as="geometry">
            <mxPoint x="260" y="1085" as="sourcePoint" />
            <mxPoint x="260" y="15" as="targetPoint" />
          </mxGeometry>
        </mxCell>
        <mxCell id="0jMs3j5oSHPksT2f17hk-6" value="" style="endArrow=none;html=1;rounded=0;entryX=0.5;entryY=1;entryDx=0;entryDy=0;shadow=1;" edge="1" parent="1">
          <mxGeometry width="50" height="50" relative="1" as="geometry">
            <mxPoint x="620" y="1050" as="sourcePoint" />
            <mxPoint x="622" y="10" as="targetPoint" />
          </mxGeometry>
        </mxCell>
        <mxCell id="0jMs3j5oSHPksT2f17hk-7" value="" style="endArrow=classic;html=1;rounded=0;fillColor=#fa6800;flowAnimation=1;strokeColor=#C73500;shadow=1;" edge="1" parent="1">
          <mxGeometry width="50" height="50" relative="1" as="geometry">
            <mxPoint x="444" y="182.27722943722947" as="sourcePoint" />
            <mxPoint x="150" y="182" as="targetPoint" />
            <Array as="points">
              <mxPoint x="379" y="182.84" />
            </Array>
          </mxGeometry>
        </mxCell>
        <mxCell id="0jMs3j5oSHPksT2f17hk-8" value="" style="endArrow=classic;html=1;rounded=0;fillColor=#fa6800;flowAnimation=1;strokeColor=#C73500;shadow=1;" edge="1" parent="1">
          <mxGeometry width="50" height="50" relative="1" as="geometry">
            <mxPoint x="425" y="216" as="sourcePoint" />
            <mxPoint x="150" y="216" as="targetPoint" />
          </mxGeometry>
        </mxCell>
        <mxCell id="0jMs3j5oSHPksT2f17hk-9" value="" style="endArrow=classic;html=1;rounded=0;fillColor=#fa6800;flowAnimation=1;strokeColor=#C73500;shadow=1;" edge="1" parent="1">
          <mxGeometry width="50" height="50" relative="1" as="geometry">
            <mxPoint x="446" y="198.5" as="sourcePoint" />
            <mxPoint x="150" y="199" as="targetPoint" />
          </mxGeometry>
        </mxCell>
      </root>
    </mxGraphModel>
  </diagram>
</mxfile>
